<?xml version="1.0" encoding="UTF-8"?>
<svg id="Layer_2" data-name="Layer 2" xmlns="http://www.w3.org/2000/svg" viewBox="0 0 563.42 94.06">
  <defs>
    <style>
      .cls-1 {
        fill: #dbd8cf;
      }
    </style>
  </defs>
  <g id="Layer_2-2" data-name="Layer 2">
    <g id="Layer_1-2" data-name="Layer 1-2">
      <g>
        <path class="cls-1" d="M468.97,2.42c13.49-2.95,25.61-1.21,37.33,4.55,10.09-6.43,21.08-6.28,32.11-5.79,1.4,.06,2.78,.38,4.56,1.83-1.58,1.09-3.16,2.18-5.83,4.02,.19,2.15-.05,5.32,.8,8.17,4.86,16.43,9.97,32.79,15,49.18,2.15,7,4.18,14.05,6.53,20.98,.82,2.4,2.46,4.53,3.95,7.2h-21.52c1.95-1.71,3.08-2.69,5.22-4.56-7.5-24.31-15.12-49.01-23.05-74.71-4.44,1.92-8.24,3.55-12.14,5.23,0,11.49-.02,22.13,0,32.77,.02,9.33,.1,18.66,.15,27.98,.03,5.13-.96,10.69,6.64,12.55-.34,.34-.69,.68-1.03,1.03h-24.65c-.06-.36-.11-.73-.17-1.09,1.39-.65,2.79-1.31,5.17-2.43V17.33c-3.19-1.07-7.07-2.37-10.81-3.62-4.05,4.84-23.97,71.28-22.75,75.63,1.27,.7,2.65,1.45,4.03,2.21-.05,.36-.1,.71-.15,1.07h-18.87c5.96-20.33,11.85-40.53,17.82-60.7,1.65-5.58,3.48-11.1,5.29-16.62,1.6-4.86,3.92-9.83-3.65-12.88h.02Z"/>
        <path class="cls-1" d="M280.72,2.86c-1.85,1.24-3.7,2.47-6.1,4.08V89.81c2.22,1.12,3.81,1.93,6.85,3.46h-27.55c2.06-1.43,3.3-2.3,4.91-3.42v-5.42h-28.74c-1.4,5.01,2.61,6.01,5.59,8.2h-23.63c-.08-.27-.16-.53-.25-.8,1.31-.72,2.61-1.45,5.05-2.8,.37-4.68,1.13-10.06,1.15-15.44,.05-11.14,1.93-21.89,6.2-32.13,9.18-22,25.1-35.97,48.94-40.14,2.31-.4,4.75-.05,7.13-.05,.14,.53,.29,1.06,.43,1.6h.02Zm-21.06,16.56c-14.9,5.93-31.92,36.72-28.58,51.86,9.21,.44,18.67,.9,28.58,1.38V19.44h0Z"/>
        <path class="cls-1" d="M147.6,61.14c7.53,15.15,10.59,19,24.04,30.44-7.73,4.25-16.15,.38-33.44-19.33-4.67,4.14-9.33,8.29-14.2,12.61,.28,1.73,.53,3.31,.78,4.86,1.73,.83,3.15,1.5,4.57,2.18l-.13,.72h-23.62c2.55-1.75,3.8-2.61,5.26-3.61V5.44c-1.77-1.38-3.25-2.53-5.44-4.25,1.93-.54,2.97-1.1,3.99-1.07,10.14,.26,20.3,.33,30.42,1.03,10.2,.7,18.53,7.97,20.04,17.34,1.51,9.39,.44,18.66-3.7,27.3-2.5,5.23-5.64,10.15-8.56,15.35h-.01ZM124.41,14.47v53.32c7.33-4.78,19.35-23.07,21.69-32.4,3.87-15.47-5.4-24.76-21.69-20.92Z"/>
        <path class="cls-1" d="M367.86,63.63c7.73,9.93,14.97,19.23,22.51,28.91-2.49,2.73-6.1,1.29-8.69-.6-5.89-4.28-11.35-9.17-16.9-13.91-1.36-1.16-2.41-2.69-4.01-4.52-4.82,4.23-9.5,8.34-15.08,13.23,1.95,2.06,3.78,3.98,5.89,6.21h-22.81c-.05-.36-.11-.71-.16-1.07,1.43-.64,2.85-1.27,4.78-2.13,.22-1.97,.67-4.07,.66-6.17-.19-23.81-.3-47.63-.84-71.43-.07-3.21-2.37-6.36-3.85-10.07-.42,.56-.23,.08-.04,.08,11.46-.02,23.08-1.19,34.35,.28,15.83,2.07,23.71,16.86,19.72,33.2-2.5,10.25-6.59,19.5-15.52,27.98h-.01Zm-21.95,5.1c1.52-.43,2.11-.41,2.42-.7,9.89-9.18,18.07-19.57,21.45-32.9,2.23-8.79-.02-15.38-6.05-19.01-5.62-3.38-11.74-2.25-17.82-1.7v54.31h0Z"/>
        <path class="cls-1" d="M432.05,93.04c-.45-.99-.96-2.11-1.59-3.5-6.34,3.82-12.84,5.29-19.88,3.89-12.47-2.48-18.58-11.06-21.42-27.44-2.35-13.6,.97-26.1,7.54-37.93,3.94-7.1,7.96-14.16,11.88-21.13-.8-1.87-1.42-3.33-2.2-5.16h43.44l1.04,1c-9.44,4.91-6.33,13.25-6.44,20.48-.32,20.49-.28,40.99-.19,61.48,.01,2.61,1.18,5.22,1.93,8.31,0,0-14.11,0-14.11,0Zm-.49-88.11c-4.84-.28-7.74,1.49-9.49,4.78-5.9,11.16-12.62,22.03-17.05,33.76-2.76,7.31-2.57,15.96-2.56,24.01,0,6.15,6.72,12.03,12.4,12.53,7.13,.63,12.71-2.74,15.05-9.69,1.14-3.4,1.91-7.1,1.95-10.67,.2-16.32,.1-32.64,.07-48.96,0-1.77-.22-3.54-.37-5.76h0Z"/>
        <path class="cls-1" d="M10.97,.21H60.44c.06,.42,.12,.83,.17,1.25-1.53,.75-3.05,1.51-5.17,2.56V92.27c-16.33,.99-29.02-4.78-39.25-16.97C7.22,64.62,2.37,52.41,.46,38.76-1.52,24.6,3.12,12.29,10.97,.21Zm31.06,77.03c0-4.82,.04-8.27,0-11.72-.23-18.78-.48-37.56-.7-56.34-.07-5.85-2.06-7.49-7.97-7.31-7.6,.23-12.33,4.32-15.39,10.78-6.46,13.67-4.82,27.24,1.35,40.41,4.66,9.95,11.82,17.85,22.71,24.18Z"/>
        <path class="cls-1" d="M104.78,79.76c-.28,4.6-.52,8.52-.86,14.15-6.71-4.1-13.1-6.84-17.99-11.24-9.45-8.5-17.67-18.27-20.79-31.1-2.66-10.94-3.59-22.02-.35-33.04C67.9,7.97,77.39,.52,88.31,.1c5.42-.21,10.85-.04,16.54-.04V12.16c-8.39,2.63-19.22-2.67-25.91,8.29,4.49,.41,8.3,.75,12.62,1.14v11.71h-15.68c.05,22.22,12.91,35.57,28.9,46.46Z"/>
        <path class="cls-1" d="M323.99,82.6c-.18,3.68-.34,6.94-.55,11.16-9.75-2.79-17.88-6.63-24.37-13.73-12.93-14.15-18.46-30.89-17.92-49.87,.46-16.35,11.38-27.95,27.59-28.97,4.58-.29,9.19-.04,14.01-.04V15.79c-4.72,0-9.14-.06-13.56,.01-8.21,.13-13.18,4.02-14.61,12.14-3.05,17.35,4.22,39.17,23.92,51.14,1.69,1.03,3.32,2.14,5.47,3.52h.02Z"/>
        <path class="cls-1" d="M178.47,92.41v-9.94c.37-.39,.55-.74,.83-.85,13.15-5.04,14.94-7.53,15.03-21.6,.07-10.82-.32-21.65,.06-32.46,.42-12.09,10.76-27.36,28.19-26.56,.95,.04,1.89,.32,3.07,.53V11.02c-1.67,.36-3.22,.77-4.8,1.03-7.66,1.24-13.32,6.98-13.59,14.92-.37,10.97-.38,21.98-.03,32.95,.37,11.84-3.34,21.53-13.11,28.59-4.21,3.04-10.17,4.63-15.65,3.9h0Z"/>
        <path class="cls-1" d="M177.31,22.16c3.02,.36,5.53,1.88,5.69,5.74,.17,4.24-2.46,6.97-6.55,7.01-4.04,.04-6.97-2.54-6.96-6.12,0-3.49,3.41-6.56,7.83-6.63h0Z"/>
      </g>
    </g>
  </g>
</svg>