<?xml version="1.0" encoding="utf-8"?>
<!-- Generator: Adobe Illustrator 27.0.0, SVG Export Plug-In . SVG Version: 6.00 Build 0)  -->
<svg version="1.1" id="Layer_2_00000089553517134520805770000013285641611871595153_"
	 xmlns="http://www.w3.org/2000/svg" xmlns:xlink="http://www.w3.org/1999/xlink" x="0px" y="0px" viewBox="0 0 731.5 124.4"
	 style="enable-background:new 0 0 731.5 124.4;" xml:space="preserve">
<style type="text/css">
	.st0{fill:#854B46;}
</style>
<g id="Livello_1">
	<g>
		<path class="st0" d="M648,107.8c3.7-30.5,5.7-65.4,7.2-100.3c0.2-3.4,1.3-4.8,4.7-5.1c9.1-0.7,18-0.6,24.3,7.5
			c2.7,3.5,4.8,2.8,7.3-0.3c7.8-9.7,18.7-6.9,28.8-6.5c2.8,0.1,2.5,2.9,2.4,4.9c-0.3,20.7,1,41.3,2.7,62c1,13.4,2.7,26.7,4.7,40
			c0.5,3.3,2.5,8-1.2,9.7c-4.4,2-9.8,1.4-14.6,0.1c-2.3-0.6-1.9-3.4-2-5.4c-1.7-27.2-3.4-54.5-5.1-81.7c-0.3-4,1-9.8-2.5-11.4
			c-3.6-1.6-6.8,3.6-9.9,6.1c-7.3,6-7.1,6-14.7-0.2c-2.7-2.2-5.3-7-8.8-5.5c-3.2,1.4-1.5,6.4-1.8,9.8c-2.1,28-4.2,56-6.1,84.1
			c-0.2,3.3-1.3,5-4.8,4.8c-0.8-0.1-1.7,0-2.5,0C650.3,120.5,647.6,116.3,648,107.8L648,107.8z"/>
		<path class="st0" d="M484.4,61.3L484.4,61.3c0-17.6,0.1-35.1-0.1-52.7c-0.1-4.4,1.4-5.8,5.6-5.8C505.2,3,520.5,2.8,535.8,3
			c10.1,0.1,14.2,7.2,9.2,15.9c-4.5,7.7-9.2,15.2-14.3,22.4c-4.6,6.6-5.1,13-2,20.4c7.3,17.8,14,35.8,21.2,53.6
			c1.5,3.7,1.2,5.5-3.2,5.1c-0.4,0-0.8,0-1.2,0c-10.9,0.2-11.1,0.2-13.4-10.2c-3.1-13.8-10.5-26-15.1-39.2c-1.4-3.9-3.7-2-5.7-0.2
			c-10.3,9.1-12.6,20.9-11.2,33.8c0.2,2.2,0.9,4.5,0.9,6.7c0.1,2.9,3.1,6.8-0.4,8.4c-4,1.8-9,1.5-13.4,0.3c-2.9-0.8-1.8-3.8-1.8-5.9
			L484.4,61.3 M499.6,38.1h-0.1c0,4.5,0,9.1,0,13.6c0,1.6,0.6,2.9,2.1,3.4c1.6,0.5,2.8-0.3,3.7-1.6c6.2-9.3,12.5-18.4,18.5-27.9
			c2.2-3.5,0-7.5-4.1-8.5c-15-3.6-19.9,0.1-20,15.3C499.6,34.4,499.6,36.3,499.6,38.1z"/>
		<path class="st0" d="M348,103.6c0,3.1-0.3,6.2,0.1,9.3c0.6,5.9-1.5,8.1-7.6,7.8c-9.8-0.4-10.1-0.1-9.1-9.9
			c2.3-22.1,2.5-44.6,11-65.7c5.4-13.5,13.1-25.3,24.7-34.3c6.7-5.2,14.2-8.3,22.6-9.2c5.1-0.5,7.4,0.8,7.1,6.7
			c-0.9,15.9-1.2,31.8-1.5,47.7c-0.4,19.8,0.3,39.6,2.1,59.4c0.3,3.5-0.7,4.8-4.3,5c-13.9,1-14,1.1-13.3-12.5
			c0.2-5.4,0.7-10.7,1.2-16c0.4-4.2-1.2-6.2-5.5-6.1c-7.2,0.1-14.5,0.2-21.7,0c-4.4-0.1-5.8,2-5.6,6.1
			C348.2,95.8,348.1,99.7,348,103.6z M379.8,45.1L379.8,45.1c0-5.6,0.1-11.1,0-16.7c0-1.9,1-4.6-1.4-5.5c-2.3-0.9-3.6,1.5-5,2.8
			C361.9,36.1,357,50.2,352,64.2c-1.1,3.1,0.1,4.6,3.5,4.6c6.4-0.1,12.8,0,19.2,0.1c3.6,0.1,5.3-1.4,5.2-5.2
			C379.7,57.5,379.8,51.3,379.8,45.1z"/>
		<path class="st0" d="M217.1,3.9c8.8,0.4,12.4,6.7,8.4,14.4c-3.8,7.4-8.2,14.4-13.4,20.8c-5.4,6.8-6.5,13.6-3.2,21.8
			c6.9,17.5,13,35.2,19.7,52.8c1.8,4.8,1.1,6.2-4.4,6.7c-7,0.5-10.2-1.8-12.1-8.7c-3.7-13.3-8.5-26.3-12.9-39.4
			c-0.7-2.1-0.7-5.1-3.3-5.6c-2.8-0.6-4.2,2.3-5.7,4.1c-9.2,10.8-9.8,23.6-8.4,36.9c0.1,0.8,0.4,1.6,0.5,2.4
			c1.4,9.6-2.8,12.9-12.4,10c-3.5-1.1-2.7-3.7-2.7-6c0.2-13.6,0.6-27.3,0.9-40.9c0.4-21.7-0.1-43.4-1.6-65c-0.3-4.2,1.2-5.1,4.7-5.1
			c7.6,0,15.3,0,22.9,0L217.1,3.9z M181.4,37.3L181.4,37.3c0,4.3-0.1,8.7,0,13c0,1.4-0.1,3.1,1.6,3.6c1.7,0.5,2.7-0.7,3.6-1.9
			c6.2-9,12.5-18,18.5-27.1c1.8-2.8,2.1-6.4-2.4-7.3c-5.5-1-11.1-1.1-16.6,0.1c-3.2,0.7-4.6,3.2-4.7,6.5
			C181.4,28.6,181.4,32.9,181.4,37.3L181.4,37.3z"/>
		<path class="st0" d="M610.3,3.7c7.1,0,13,0,19,0c1.6,0,2.7,0.5,3,2.4c1.2,8.2,2.5,16.3,3.8,24.5c2.4,14.9-3.4,27.6-10.4,40
			c-11.4,20.3-25.5,38.1-46.6,49.3c-0.5,0.3-1.1,0.6-1.6,0.9c-3.8,1.6-8.2,4.4-11.8,2.8c-4.5-2.1-0.9-7.1-0.7-10.6
			C567,78.9,566,45,565.6,11.1c-0.1-7.9-0.1-7.9,7.8-7.6c10.5,0.4,10.7,0.5,9.1,11.2c-3.9,25.7-1.8,51.6-2,77.4
			c0,2.9,0.8,6.3,4.6,3.3c21.3-16.9,35.8-37.7,35.7-66.2C620.7,19.9,616.1,12,610.3,3.7L610.3,3.7z"/>
		<path class="st0" d="M25.9,4.4c-17.8,22.9-10,49.4,2.2,66.3c5.4,7.6,11.2,14.8,18.1,21.1c1.4,1.3,2.8,2.7,4.9,1.7
			c2.1-0.9,2.1-2.9,2.1-4.8c-0.5-26.4,2.7-52.9-1.3-79.3c-0.7-4.3,1-5.4,5-5.4c13.5-0.3,13-0.3,12.1,13.1
			c-1.5,21.9-0.9,43.8-0.8,65.7c0.1,10.5,0.1,21.1,1.1,31.6c0.8,7.3,0,7.8-6.8,5.6c-15.1-4.7-25.6-15.5-35.8-26.8
			c-8.4-9.3-14.1-20.3-19.9-31.3c-7.3-14-7.7-28.5-4.2-43.4C6.1,3.9,6.2,3.9,21.4,4.2C22.7,4.2,23.8,4.3,25.9,4.4z"/>
		<path class="st0" d="M89.9,63.4c0-18.4,1.3-36.8-0.5-55.2c-0.3-3.2,1.1-4,3.8-4c15.9,0,31.8-0.1,47.8,0c6.4,0,3.7,5.1,4.1,8.3
			c0.5,3.4,0.1,6.1-4.6,5.9c-9.3-0.2-18.6,0-27.9,0c-3.2,0-6.5,0.4-7.8,3.8c-1.4,4-0.9,8.2,0,12.2c0.4,1.8,2.9,1.2,4.5,1.3
			c8.5,0.2,17,0.5,25.4,0.1c5.9-0.2,6.1,3.2,5.9,7.5c-0.2,4,0.5,8-5.8,7.6c-7.4-0.4-14.9-0.1-22.3-0.1c-5.2,0-8.2,2.2-8.2,7.7
			c0,14.9,0.1,29.8,0,44.7c0,4.2,2.3,4.5,5.7,4.3c12.2-0.7,24.4-1.2,36.5-1.9c3.6-0.2,6.4,0.2,5.5,4.8c-0.8,3.8,2.8,10-5.3,9.9
			c-17.2,0-34.3-0.1-51.5,0.1c-4.7,0.1-5.4-2.3-5.4-6.2C90,97.3,89.9,80.3,89.9,63.4L89.9,63.4z"/>
		<path class="st0" d="M466,10.9v1.2c0,5.5-2.7,7.5-8,5.8c-17.1-5.4-31.8,4.8-33.1,22.8c-1.8,25.9,15.9,53.4,40.6,63.2
			c8.1,3.2,10.5,9.5,6.7,17.5c-1,2.1-2.3,1.3-3.6,0.8c-31.2-12.4-59.4-38.3-58.7-78.6c0.2-13.9,3.5-27.1,16.1-35.9
			c6-4.2,12.9-5.3,19.9-6c4.3-0.4,8.7-0.3,13-1c5.4-0.9,7.9,0.8,7.1,6.5C465.9,8.4,466,9.7,466,10.9L466,10.9z"/>
		<path class="st0" d="M270.1,122.6c-12.3,0.1-14.5-2.3-14.1-12.1c0.2-3.8,1.1-5.6,5.5-4.2c5.6,1.8,11.5,1.7,17.1,0.1
			c14-3.8,23-17.5,20.9-32.4c-1.7-12.2-4.1-24.4-6.3-36.6c-2.5-14.4,0.9-24.1,11.1-30.3c4.2-2.6,8.8-4.5,14-4.3
			c6.9,0.3,12.1,8.9,9,15c-1.1,2.1-2.6,0.7-3.7,0.5c-12.5-1.8-17.4,3.3-15,15.8c2.4,12.8,5.5,25.4,6.6,38.4
			c2,22.7-11.4,42.9-32.4,48.1C277.9,121.9,272.7,122.2,270.1,122.6L270.1,122.6z"/>
	</g>
</g>
</svg>
